<svg width="24" height="24" viewBox="0 0 24 24" fill="none" xmlns="http://www.w3.org/2000/svg">
<path d="M12 22.75C6.07 22.75 1.25 17.93 1.25 12C1.25 6.07 6.07 1.25 12 1.25C17.93 1.25 22.75 6.07 22.75 12C22.75 17.93 17.93 22.75 12 22.75ZM12 2.75C6.9 2.75 2.75 6.9 2.75 12C2.75 17.1 6.9 21.25 12 21.25C17.1 21.25 21.25 17.1 21.25 12C21.25 6.9 17.1 2.75 12 2.75Z" fill="#292D32"/>
<path d="M10.7401 16.28C10.5501 16.28 10.3601 16.21 10.2101 16.06C9.92005 15.77 9.92005 15.29 10.2101 15L13.2101 12L10.2101 9.00003C9.92005 8.71003 9.92005 8.23003 10.2101 7.94003C10.5001 7.65003 10.9801 7.65003 11.2701 7.94003L14.8001 11.47C15.0901 11.76 15.0901 12.24 14.8001 12.53L11.2701 16.06C11.1201 16.21 10.9301 16.28 10.7401 16.28Z" fill="#292D32"/>
</svg>
