<svg width="24" height="24" viewBox="0 0 24 24" fill="none" xmlns="http://www.w3.org/2000/svg">
<path d="M12 22.75C6.07 22.75 1.25 17.93 1.25 12C1.25 6.07 6.07 1.25 12 1.25C17.93 1.25 22.75 6.07 22.75 12C22.75 17.93 17.93 22.75 12 22.75ZM12 2.75C6.9 2.75 2.75 6.9 2.75 12C2.75 17.1 6.9 21.25 12 21.25C17.1 21.25 21.25 17.1 21.25 12C21.25 6.9 17.1 2.75 12 2.75Z" fill="#292D32"/>
<path d="M10.2905 14.4651L8.08284 12.2575C7.96388 12.1386 7.80254 12.0717 7.63431 12.0717C7.46608 12.0717 7.30474 12.1386 7.18579 12.2575C7.06683 12.3765 7 12.5378 7 12.706C7 12.7893 7.01641 12.8718 7.04828 12.9488C7.08016 13.0257 7.12688 13.0957 7.18579 13.1546L9.84513 15.8139C10.0933 16.062 10.4941 16.062 10.7422 15.8139L17.4733 9.08284C17.5922 8.96388 17.659 8.80254 17.659 8.63431C17.659 8.46608 17.5922 8.30474 17.4733 8.18579C17.3543 8.06683 17.193 8 17.0247 8C16.8565 8 16.6952 8.06683 16.5762 8.18579L10.2905 14.4651Z" fill="#292D32"/>
</svg>
