<svg width="16" height="16" viewBox="0 0 16 16" fill="none" xmlns="http://www.w3.org/2000/svg">
<path fill-rule="evenodd" clip-rule="evenodd" d="M2.66683 0C1.93045 0 1.3335 0.596953 1.3335 1.33333V14.6667C1.3335 15.403 1.93045 16 2.66683 16H13.3335C14.0699 16 14.6668 15.403 14.6668 14.6667V0H2.66683ZM14.6668 1.04904e-05V2.66667L12.0002 1.02573e-05L14.6668 1.04904e-05Z" fill="#E2E8F0"/>
<path fill-rule="evenodd" clip-rule="evenodd" d="M12 0V2.66666H14.6667L12 0Z" fill="#94A3B8"/>
<path fill-rule="evenodd" clip-rule="evenodd" d="M14.6665 5.3335V2.66683H11.9998L14.6665 5.3335Z" fill="#CBD5E1"/>
<rect x="0.666504" y="5" width="14.6667" height="8.33333" rx="0.666667" fill="#10B981"/>
<path d="M1.7627 12H2.68066L3.79069 10.2715H3.81999L4.93001 12H5.90006L4.35384 9.65625V9.64648L5.92611 7.30273H4.9821L3.89486 9.07031H3.85905L2.76855 7.30273H1.77572L3.2959 9.6237V9.63346L1.7627 12ZM6.79525 12H9.79004V11.2936H7.63509V7.30273H6.79525V12ZM12.3258 12.1172C13.4521 12.1172 14.1585 11.5443 14.1585 10.6296V10.6263C14.1585 9.91667 13.7451 9.51953 12.7555 9.3112L12.251 9.20378C11.665 9.08008 11.4274 8.87174 11.4274 8.53971V8.53646C11.4274 8.13607 11.7985 7.89193 12.3193 7.89193C12.8564 7.88867 13.2048 8.14909 13.2633 8.51367L13.2699 8.55273H14.0739L14.0706 8.51042C14.012 7.75521 13.3643 7.18555 12.3226 7.18555C11.307 7.18555 10.5843 7.75195 10.5843 8.5918V8.59505C10.5843 9.29492 11.001 9.74414 11.9613 9.94596L12.4658 10.0501C13.0713 10.1803 13.3154 10.3854 13.3154 10.724V10.7272C13.3154 11.1309 12.9183 11.4108 12.3519 11.4108C11.7562 11.4108 11.3363 11.1504 11.2972 10.7565L11.2939 10.724H10.4801L10.4834 10.7695C10.542 11.5801 11.2354 12.1172 12.3258 12.1172Z" fill="white"/>
</svg>
