<svg width="12" height="13" viewBox="0 0 12 13" fill="none" xmlns="http://www.w3.org/2000/svg">
<path d="M6.50021 6.37512C6.40521 6.37512 6.31021 6.34012 6.23521 6.26512C6.09021 6.12012 6.09021 5.88012 6.23521 5.73512L10.3352 1.63512C10.4802 1.49012 10.7202 1.49012 10.8652 1.63512C11.0102 1.78012 11.0102 2.02012 10.8652 2.16512L6.76521 6.26512C6.69021 6.34012 6.59521 6.37512 6.50021 6.37512Z" fill="#E6F2EC"/>
<path d="M11.0001 4.275C10.7951 4.275 10.6251 4.105 10.6251 3.9V1.875H8.6001C8.3951 1.875 8.2251 1.705 8.2251 1.5C8.2251 1.295 8.3951 1.125 8.6001 1.125H11.0001C11.2051 1.125 11.3751 1.295 11.3751 1.5V3.9C11.3751 4.105 11.2051 4.275 11.0001 4.275Z" fill="#E6F2EC"/>
<path d="M7.5 11.875H4.5C1.785 11.875 0.625 10.715 0.625 8V5C0.625 2.285 1.785 1.125 4.5 1.125H5.5C5.705 1.125 5.875 1.295 5.875 1.5C5.875 1.705 5.705 1.875 5.5 1.875H4.5C2.195 1.875 1.375 2.695 1.375 5V8C1.375 10.305 2.195 11.125 4.5 11.125H7.5C9.805 11.125 10.625 10.305 10.625 8V7C10.625 6.795 10.795 6.625 11 6.625C11.205 6.625 11.375 6.795 11.375 7V8C11.375 10.715 10.215 11.875 7.5 11.875Z" fill="#E6F2EC"/>
</svg>
