<?xml version="1.0" encoding="UTF-8"?>
<svg xmlns="http://www.w3.org/2000/svg" xmlns:xlink="http://www.w3.org/1999/xlink" width="195px" height="80px" viewBox="0 0 194 80" version="1.1">
<defs>
<clipPath id="clip1">
  <path d="M 59 17 L 69 17 L 69 62.832031 L 59 62.832031 Z M 59 17 "/>
</clipPath>
<clipPath id="clip2">
  <path d="M 47.742188 17 L 58 17 L 58 26 L 47.742188 26 Z M 47.742188 17 "/>
</clipPath>
<clipPath id="clip3">
  <path d="M 72 29 L 81 29 L 81 62.832031 L 72 62.832031 Z M 72 29 "/>
</clipPath>
<clipPath id="clip4">
  <path d="M 96 29 L 129 29 L 129 62.832031 L 96 62.832031 Z M 96 29 "/>
</clipPath>
<clipPath id="clip5">
  <path d="M 131 16.945312 L 160 16.945312 L 160 62.832031 L 131 62.832031 Z M 131 16.945312 "/>
</clipPath>
<clipPath id="clip6">
  <path d="M 160 16.945312 L 169 16.945312 L 169 62.832031 L 160 62.832031 Z M 160 16.945312 "/>
</clipPath>
<clipPath id="clip7">
  <path d="M 173 17 L 181.265625 17 L 181.265625 26 L 173 26 Z M 173 17 "/>
</clipPath>
<clipPath id="clip8">
  <path d="M 173 29 L 181.265625 29 L 181.265625 62.832031 L 173 62.832031 Z M 173 29 "/>
</clipPath>
</defs>
<g id="surface1">
<path style=" stroke:none;fill-rule:nonzero;fill:rgb(100%,100%,100%);fill-opacity:1;" d="M 31.707031 19.117188 C 33.953125 19.117188 36.195312 19.117188 38.4375 19.117188 C 40.125 19.121094 41.265625 20.207031 41.265625 21.820312 C 41.265625 34.96875 41.265625 48.117188 41.265625 61.265625 C 41.265625 62.867188 40.140625 63.960938 38.472656 63.960938 C 27.917969 63.964844 17.363281 63.964844 6.804688 63.960938 C 5.101562 63.960938 3.992188 62.882812 3.992188 61.257812 C 3.988281 48.132812 3.996094 35.003906 3.980469 21.878906 C 3.976562 20.453125 4.9375 19.410156 6.117188 19.167969 C 6.398438 19.113281 6.683594 19.117188 6.964844 19.117188 C 9.230469 19.117188 11.5 19.117188 13.765625 19.117188 C 13.773438 19.332031 13.769531 19.546875 13.785156 19.761719 C 13.832031 20.597656 14.070312 20.824219 14.933594 20.824219 C 20.125 20.828125 25.320312 20.824219 30.511719 20.824219 C 30.605469 20.824219 30.699219 20.828125 30.792969 20.820312 C 31.367188 20.785156 31.59375 20.574219 31.640625 20.027344 C 31.664062 19.722656 31.6875 19.421875 31.710938 19.117188 Z M 22.808594 60.746094 C 23.558594 59.980469 24.296875 59.234375 25.023438 58.476562 C 25.191406 58.300781 25.292969 58.261719 25.488281 58.464844 C 26.144531 59.160156 26.839844 59.828125 27.492188 60.523438 C 27.683594 60.730469 27.769531 60.707031 27.941406 60.523438 C 28.609375 59.824219 29.300781 59.140625 29.96875 58.4375 C 30.128906 58.269531 30.210938 58.273438 30.371094 58.441406 C 31.039062 59.144531 31.730469 59.824219 32.402344 60.523438 C 32.570312 60.703125 32.671875 60.707031 32.84375 60.527344 C 33.511719 59.824219 34.199219 59.140625 34.871094 58.441406 C 35.019531 58.289062 35.105469 58.253906 35.273438 58.433594 C 35.761719 58.957031 36.265625 59.464844 36.769531 59.972656 C 37 60.203125 37.207031 60.460938 37.519531 60.679688 C 37.519531 60.519531 37.519531 60.40625 37.519531 60.296875 C 37.519531 52.679688 37.519531 45.066406 37.519531 37.449219 C 37.519531 33.894531 37.5 30.34375 37.527344 26.789062 C 37.542969 25.273438 36.289062 24.207031 34.945312 24.210938 C 26.855469 24.226562 18.769531 24.21875 10.679688 24.21875 C 10.480469 24.21875 10.28125 24.21875 10.082031 24.265625 C 8.824219 24.570312 8.09375 25.496094 8.09375 26.8125 C 8.09375 37.972656 8.09375 49.128906 8.09375 60.285156 C 8.09375 60.402344 8.09375 60.523438 8.09375 60.640625 C 8.128906 60.65625 8.160156 60.675781 8.195312 60.691406 C 8.273438 60.59375 8.339844 60.488281 8.425781 60.398438 C 9.0625 59.746094 9.703125 59.097656 10.335938 58.441406 C 10.480469 58.289062 10.570312 58.277344 10.722656 58.433594 C 11.394531 59.132812 12.085938 59.816406 12.753906 60.519531 C 12.921875 60.695312 13.007812 60.746094 13.203125 60.539062 C 13.859375 59.839844 14.546875 59.171875 15.207031 58.476562 C 15.382812 58.289062 15.488281 58.273438 15.671875 58.46875 C 16.339844 59.171875 17.03125 59.855469 17.699219 60.554688 C 17.855469 60.71875 17.941406 60.71875 18.101562 60.554688 C 18.761719 59.859375 19.441406 59.183594 20.105469 58.492188 C 20.285156 58.300781 20.394531 58.269531 20.59375 58.484375 C 21.316406 59.242188 22.058594 59.984375 22.808594 60.75 Z M 22.808594 60.746094 "/>
<path style=" stroke:none;fill-rule:nonzero;fill:rgb(100%,58.431375%,0%);fill-opacity:1;" d="M 31.710938 19.117188 C 31.6875 19.421875 31.664062 19.726562 31.640625 20.027344 C 31.59375 20.574219 31.367188 20.785156 30.792969 20.820312 C 30.699219 20.828125 30.605469 20.824219 30.511719 20.824219 C 25.316406 20.824219 20.125 20.828125 14.933594 20.824219 C 14.070312 20.824219 13.832031 20.597656 13.78125 19.761719 C 13.769531 19.546875 13.769531 19.332031 13.765625 19.117188 C 13.8125 18.648438 13.742188 18.171875 13.84375 17.699219 C 14.0625 16.652344 15.007812 15.878906 16.121094 15.871094 C 16.664062 15.867188 17.207031 15.859375 17.746094 15.875 C 18.035156 15.886719 18.152344 15.835938 18.207031 15.511719 C 18.527344 13.644531 20.144531 12.195312 22.121094 11.996094 C 24.15625 11.789062 25.734375 12.515625 26.800781 14.203125 C 27.082031 14.644531 27.21875 15.136719 27.289062 15.644531 C 27.320312 15.84375 27.410156 15.875 27.585938 15.875 C 28.128906 15.867188 28.671875 15.871094 29.214844 15.871094 C 30.652344 15.871094 31.667969 16.828125 31.691406 18.203125 C 31.695312 18.507812 31.703125 18.8125 31.707031 19.117188 Z M 22.714844 15.871094 C 23.46875 15.871094 24.222656 15.871094 24.976562 15.871094 C 25.375 15.871094 25.378906 15.859375 25.253906 15.484375 C 25.027344 14.796875 24.535156 14.332031 23.859375 14.042969 C 22.417969 13.429688 20.738281 14.09375 20.21875 15.472656 C 20.082031 15.835938 20.105469 15.871094 20.519531 15.871094 C 21.25 15.871094 21.980469 15.871094 22.710938 15.871094 Z M 22.714844 15.871094 "/>
<path style=" stroke:none;fill-rule:nonzero;fill:rgb(100%,58.431375%,0%);fill-opacity:1;" d="M 35.21875 49.195312 C 35.21875 48.472656 35.035156 47.765625 34.683594 47.128906 C 34.335938 46.492188 33.828125 45.945312 33.210938 45.539062 C 32.59375 45.128906 31.878906 44.871094 31.132812 44.785156 C 30.386719 44.703125 29.632812 44.792969 28.929688 45.050781 C 28.230469 45.308594 27.605469 45.722656 27.109375 46.265625 C 26.613281 46.804688 26.261719 47.453125 26.085938 48.152344 C 25.910156 48.851562 25.914062 49.582031 26.097656 50.28125 C 26.28125 50.976562 26.640625 51.621094 27.140625 52.15625 L 28.59375 50.910156 C 28.304688 50.597656 28.097656 50.226562 27.988281 49.820312 C 27.882812 49.417969 27.882812 48.996094 27.984375 48.589844 C 28.085938 48.1875 28.289062 47.8125 28.574219 47.5 C 28.863281 47.1875 29.222656 46.945312 29.628906 46.796875 C 30.035156 46.648438 30.472656 46.597656 30.902344 46.644531 C 31.335938 46.695312 31.746094 46.84375 32.105469 47.078125 C 32.460938 47.316406 32.753906 47.628906 32.957031 48 C 33.160156 48.367188 33.265625 48.777344 33.265625 49.195312 Z M 35.21875 49.195312 "/>
<path style=" stroke:none;fill-rule:nonzero;fill:rgb(100%,100%,100%);fill-opacity:1;" d="M 30.585938 53.632812 C 31.453125 53.632812 32.296875 53.398438 33.03125 52.960938 C 33.765625 52.523438 34.359375 51.898438 34.742188 51.15625 L 32.988281 50.328125 C 32.769531 50.757812 32.425781 51.121094 32 51.375 C 31.578125 51.625 31.085938 51.761719 30.585938 51.761719 Z M 30.585938 53.632812 "/>
<path style=" stroke:none;fill-rule:nonzero;fill:rgb(100%,100%,100%);fill-opacity:1;" d="M 21.996094 29.265625 C 25.445312 29.265625 28.894531 29.269531 32.34375 29.261719 C 32.617188 29.261719 32.71875 29.320312 32.703125 29.609375 C 32.679688 30.140625 32.683594 30.667969 32.703125 31.199219 C 32.714844 31.457031 32.625 31.515625 32.378906 31.515625 C 29.949219 31.507812 27.519531 31.511719 25.089844 31.511719 C 20.597656 31.511719 16.105469 31.507812 11.617188 31.515625 C 11.300781 31.519531 11.183594 31.453125 11.203125 31.113281 C 11.230469 30.609375 11.226562 30.101562 11.203125 29.59375 C 11.191406 29.316406 11.292969 29.261719 11.546875 29.261719 C 15.03125 29.269531 18.515625 29.269531 21.996094 29.269531 Z M 21.996094 29.265625 "/>
<path style=" stroke:none;fill-rule:nonzero;fill:rgb(100%,100%,100%);fill-opacity:1;" d="M 19.226562 37.460938 C 16.679688 37.460938 14.128906 37.453125 11.582031 37.46875 C 11.261719 37.46875 11.179688 37.378906 11.195312 37.085938 C 11.222656 36.578125 11.21875 36.070312 11.195312 35.5625 C 11.183594 35.28125 11.269531 35.199219 11.566406 35.203125 C 14.375 35.210938 17.183594 35.207031 19.992188 35.207031 C 22.316406 35.207031 24.640625 35.214844 26.964844 35.203125 C 27.265625 35.199219 27.34375 35.285156 27.332031 35.5625 C 27.308594 36.082031 27.3125 36.605469 27.332031 37.125 C 27.34375 37.390625 27.261719 37.46875 26.976562 37.46875 C 24.394531 37.457031 21.8125 37.460938 19.226562 37.460938 Z M 19.226562 37.460938 "/>
<path style=" stroke:none;fill-rule:nonzero;fill:rgb(100%,100%,100%);fill-opacity:1;" d="M 17 41.046875 C 18.792969 41.046875 20.589844 41.050781 22.382812 41.039062 C 22.664062 41.039062 22.78125 41.09375 22.765625 41.390625 C 22.742188 41.917969 22.75 42.453125 22.761719 42.984375 C 22.769531 43.210938 22.707031 43.300781 22.449219 43.300781 C 18.800781 43.292969 15.152344 43.292969 11.503906 43.300781 C 11.277344 43.300781 11.191406 43.242188 11.199219 43.015625 C 11.214844 42.484375 11.21875 41.949219 11.195312 41.417969 C 11.183594 41.128906 11.257812 41.035156 11.582031 41.039062 C 13.386719 41.054688 15.191406 41.046875 17 41.046875 Z M 17 41.046875 "/>
<path style=" stroke:none;fill-rule:evenodd;fill:rgb(100%,100%,100%);fill-opacity:1;" d="M 30.980469 27.90625 L 35.53125 30.464844 L 30.980469 33.023438 Z M 30.980469 27.90625 "/>
<g clip-path="url(#clip1)" clip-rule="nonzero">
<path style=" stroke:none;fill-rule:nonzero;fill:rgb(100%,100%,100%);fill-opacity:1;" d="M 59.378906 17.703125 L 59.378906 57.359375 C 59.378906 59.195312 59.796875 60.558594 60.632812 61.476562 C 61.46875 62.382812 62.554688 62.832031 63.886719 62.832031 C 65.21875 62.832031 66.253906 62.382812 67.078125 61.484375 C 67.90625 60.589844 68.324219 59.214844 68.324219 57.359375 L 68.324219 17.703125 Z M 59.378906 17.703125 "/>
</g>
<g clip-path="url(#clip2)" clip-rule="nonzero">
<path style=" stroke:none;fill-rule:nonzero;fill:rgb(100%,100%,100%);fill-opacity:1;" d="M 57.082031 17.703125 L 57.082031 25.121094 L 52.269531 25.121094 C 50.738281 25.121094 49.601562 24.78125 48.855469 24.105469 C 48.109375 23.425781 47.742188 22.539062 47.742188 21.421875 C 47.742188 20.304688 48.132812 19.367188 48.90625 18.699219 C 49.683594 18.03125 50.796875 17.703125 52.269531 17.703125 Z M 57.082031 17.703125 "/>
</g>
<path style=" stroke:none;fill-rule:nonzero;fill:rgb(100%,100%,100%);fill-opacity:1;" d="M 84.683594 21.421875 C 84.683594 22.539062 84.304688 23.425781 83.539062 24.105469 C 82.773438 24.78125 81.628906 25.121094 80.097656 25.121094 L 70.3125 25.121094 L 70.3125 17.703125 L 80.097656 17.703125 C 81.648438 17.703125 82.804688 18.042969 83.550781 18.730469 C 84.304688 19.417969 84.683594 20.316406 84.683594 21.421875 Z M 84.683594 21.421875 "/>
<g clip-path="url(#clip3)" clip-rule="nonzero">
<path style=" stroke:none;fill-rule:nonzero;fill:rgb(95.294118%,57.647061%,10.196079%);fill-opacity:1;" d="M 80.078125 34.382812 C 80.007812 32.6875 79.679688 31.402344 79.074219 30.535156 C 78.476562 29.667969 77.484375 29.238281 76.121094 29.238281 C 73.433594 29.238281 72.101562 31.09375 72.101562 34.800781 L 72.101562 57.808594 C 72.101562 59.460938 72.480469 60.71875 73.246094 61.566406 C 74.011719 62.414062 74.988281 62.832031 76.179688 62.832031 C 77.375 62.832031 78.386719 62.414062 79.164062 61.574219 C 79.949219 60.738281 80.347656 59.480469 80.347656 57.808594 L 80.347656 53.960938 Z M 80.078125 34.382812 "/>
</g>
<path style=" stroke:none;fill-rule:nonzero;fill:rgb(100%,100%,100%);fill-opacity:1;" d="M 95.984375 33.984375 C 95.984375 35 95.636719 35.828125 94.949219 36.484375 C 94.253906 37.144531 93.496094 37.472656 92.691406 37.472656 C 92.394531 37.472656 91.667969 37.28125 90.503906 36.902344 C 89.347656 36.535156 88.324219 36.34375 87.4375 36.34375 C 86.234375 36.34375 85.242188 36.664062 84.476562 37.300781 C 83.769531 37.890625 83.390625 38.628906 82.695312 40.132812 C 82.328125 40.921875 81.859375 42.046875 81.429688 43.453125 C 81.390625 40.433594 81.351562 37.410156 81.3125 34.382812 C 81.640625 33.8125 81.96875 33.296875 82.296875 32.828125 C 82.972656 31.878906 83.648438 31.113281 84.347656 30.535156 C 85.378906 29.667969 86.761719 29.238281 88.492188 29.238281 C 90.226562 29.238281 91.90625 29.667969 93.535156 30.535156 C 95.167969 31.402344 95.984375 32.558594 95.984375 33.984375 Z M 95.984375 33.984375 "/>
<g clip-path="url(#clip4)" clip-rule="nonzero">
<path style=" stroke:none;fill-rule:nonzero;fill:rgb(100%,100%,100%);fill-opacity:1;" d="M 119.21875 58.175781 C 117.230469 59.730469 115.300781 60.898438 113.441406 61.675781 C 111.578125 62.453125 109.492188 62.839844 107.171875 62.839844 C 105.054688 62.839844 103.203125 62.421875 101.601562 61.585938 C 100 60.75 98.769531 59.613281 97.902344 58.175781 C 97.039062 56.742188 96.601562 55.1875 96.601562 53.511719 C 96.601562 51.25 97.316406 49.324219 98.75 47.730469 C 100.179688 46.132812 102.140625 45.066406 104.636719 44.519531 C 105.164062 44.398438 106.457031 44.128906 108.535156 43.703125 C 110.605469 43.285156 112.386719 42.894531 113.867188 42.535156 C 115.347656 42.1875 116.949219 41.757812 118.679688 41.25 C 118.582031 39.066406 118.144531 37.472656 117.367188 36.453125 C 116.59375 35.4375 114.992188 34.929688 112.554688 34.929688 C 110.457031 34.929688 108.882812 35.21875 107.828125 35.808594 C 106.773438 36.394531 105.871094 37.273438 105.113281 38.4375 C 104.359375 39.605469 103.820312 40.382812 103.511719 40.75 C 103.203125 41.128906 102.527344 41.308594 101.503906 41.308594 C 100.578125 41.308594 99.773438 41.011719 99.105469 40.414062 C 98.441406 39.8125 98.09375 39.058594 98.09375 38.128906 C 98.09375 36.675781 98.609375 35.269531 99.632812 33.894531 C 100.660156 32.515625 102.257812 31.390625 104.4375 30.503906 C 106.617188 29.617188 109.320312 29.167969 112.566406 29.167969 C 116.183594 29.167969 119.039062 29.597656 121.109375 30.453125 C 123.175781 31.3125 124.648438 32.667969 125.503906 34.519531 C 126.359375 36.375 126.789062 38.835938 126.789062 41.90625 C 126.789062 43.839844 126.789062 45.488281 126.769531 46.84375 C 126.757812 48.199219 126.738281 49.691406 126.71875 51.347656 C 126.71875 52.902344 126.976562 54.519531 127.484375 56.203125 C 128 57.886719 128.25 58.972656 128.25 59.453125 C 128.25 60.300781 127.851562 61.066406 127.054688 61.765625 C 126.261719 62.460938 125.355469 62.8125 124.351562 62.8125 C 123.503906 62.8125 122.671875 62.414062 121.84375 61.617188 C 121.019531 60.816406 120.144531 59.660156 119.21875 58.144531 Z M 118.679688 46.214844 C 117.476562 46.664062 115.71875 47.132812 113.410156 47.621094 C 111.101562 48.117188 109.511719 48.476562 108.625 48.707031 C 107.738281 48.933594 106.894531 49.394531 106.089844 50.070312 C 105.285156 50.75 104.886719 51.6875 104.886719 52.902344 C 104.886719 54.117188 105.363281 55.214844 106.308594 56.09375 C 107.253906 56.96875 108.496094 57.410156 110.019531 57.410156 C 111.648438 57.410156 113.152344 57.050781 114.535156 56.332031 C 115.917969 55.613281 116.921875 54.695312 117.566406 53.5625 C 118.3125 52.316406 118.679688 50.25 118.679688 47.390625 Z M 118.679688 46.214844 "/>
</g>
<g clip-path="url(#clip5)" clip-rule="nonzero">
<path style=" stroke:none;fill-rule:nonzero;fill:rgb(100%,100%,100%);fill-opacity:1;" d="M 151.40625 59.054688 L 144.125 47.070312 L 139.660156 51.308594 L 139.660156 57.878906 C 139.660156 59.472656 139.242188 60.699219 138.40625 61.554688 C 137.570312 62.414062 136.605469 62.839844 135.519531 62.839844 C 134.246094 62.839844 133.253906 62.414062 132.527344 61.566406 C 131.800781 60.71875 131.441406 59.460938 131.441406 57.808594 L 131.441406 22.578125 C 131.441406 20.746094 131.789062 19.347656 132.496094 18.382812 C 133.203125 17.425781 134.207031 16.945312 135.519531 16.945312 C 136.832031 16.945312 137.796875 17.386719 138.542969 18.253906 C 139.289062 19.121094 139.660156 20.40625 139.660156 22.101562 L 139.660156 42.136719 L 148.929688 32.386719 C 150.070312 31.179688 150.949219 30.355469 151.554688 29.90625 C 152.160156 29.46875 152.898438 29.238281 153.761719 29.238281 C 154.785156 29.238281 155.640625 29.566406 156.328125 30.222656 C 157.015625 30.882812 157.351562 31.699219 157.351562 32.695312 C 157.351562 33.902344 156.238281 35.519531 154 37.542969 L 149.625 41.570312 L 158.078125 54.886719 C 158.707031 55.875 159.152344 56.632812 159.421875 57.140625 C 159.691406 57.648438 159.828125 58.144531 159.828125 58.605469 C 159.828125 59.921875 159.472656 60.949219 158.753906 61.707031 C 158.039062 62.460938 157.09375 62.839844 155.929688 62.839844 C 154.925781 62.839844 154.148438 62.574219 153.601562 62.023438 C 153.054688 61.476562 152.320312 60.488281 151.394531 59.054688 Z M 151.40625 59.054688 "/>
</g>
<g clip-path="url(#clip6)" clip-rule="nonzero">
<path style=" stroke:none;fill-rule:nonzero;fill:rgb(100%,100%,100%);fill-opacity:1;" d="M 160.527344 57.808594 L 160.527344 21.96875 C 160.527344 20.316406 160.894531 19.058594 161.628906 18.210938 C 162.367188 17.363281 163.359375 16.9375 164.605469 16.9375 C 165.847656 16.9375 166.863281 17.355469 167.628906 18.191406 C 168.394531 19.03125 168.769531 20.285156 168.769531 21.960938 L 168.769531 57.796875 C 168.769531 59.472656 168.382812 60.726562 167.609375 61.566406 C 166.832031 62.402344 165.828125 62.820312 164.605469 62.820312 C 163.378906 62.820312 162.414062 62.382812 161.660156 61.515625 C 160.902344 60.648438 160.527344 59.402344 160.527344 57.789062 Z M 160.527344 57.808594 "/>
</g>
<g clip-path="url(#clip7)" clip-rule="nonzero">
<path style=" stroke:none;fill-rule:nonzero;fill:rgb(95.294118%,57.647061%,10.196079%);fill-opacity:1;" d="M 177.1875 25.390625 C 178.289062 25.390625 179.246094 25.03125 180.050781 24.3125 C 180.855469 23.59375 181.253906 22.597656 181.253906 21.332031 C 181.253906 20.066406 180.835938 19.019531 180.011719 18.332031 C 179.1875 17.644531 178.242188 17.304688 177.175781 17.304688 C 176.113281 17.304688 175.097656 17.683594 174.261719 18.441406 C 173.425781 19.199219 173.007812 20.167969 173.007812 21.332031 C 173.007812 22.628906 173.417969 23.625 174.230469 24.332031 C 175.046875 25.039062 176.03125 25.390625 177.175781 25.390625 Z M 177.1875 25.390625 "/>
</g>
<g clip-path="url(#clip8)" clip-rule="nonzero">
<path style=" stroke:none;fill-rule:nonzero;fill:rgb(100%,100%,100%);fill-opacity:1;" d="M 177.097656 29.238281 C 175.894531 29.238281 174.910156 29.65625 174.152344 30.484375 C 173.398438 31.3125 173.019531 32.539062 173.019531 34.171875 L 173.019531 57.816406 C 173.019531 59.433594 173.398438 60.679688 174.152344 61.546875 C 174.910156 62.414062 175.894531 62.851562 177.097656 62.851562 C 178.300781 62.851562 179.304688 62.421875 180.089844 61.574219 C 180.875 60.726562 181.265625 59.472656 181.265625 57.816406 L 181.265625 33.933594 C 181.265625 32.457031 180.875 31.3125 180.089844 30.484375 C 179.304688 29.65625 178.308594 29.238281 177.097656 29.238281 Z M 177.097656 29.238281 "/>
</g>
</g>
</svg>
