<svg width="16" height="16" viewBox="0 0 16 16" fill="none" xmlns="http://www.w3.org/2000/svg">
<path fill-rule="evenodd" clip-rule="evenodd" d="M2.66683 0C1.93045 0 1.3335 0.596953 1.3335 1.33333V14.6667C1.3335 15.403 1.93045 16 2.66683 16H13.3335C14.0699 16 14.6668 15.403 14.6668 14.6667V0H2.66683ZM14.6668 1.04904e-05V2.66667L12.0002 1.02573e-05L14.6668 1.04904e-05Z" fill="#E2E8F0"/>
<path fill-rule="evenodd" clip-rule="evenodd" d="M12 0V2.66666H14.6667L12 0Z" fill="#94A3B8"/>
<path fill-rule="evenodd" clip-rule="evenodd" d="M14.6665 5.3335V2.66683H11.9998L14.6665 5.3335Z" fill="#CBD5E1"/>
<rect x="0.666504" y="5" width="14.6667" height="8.33333" rx="0.666667" fill="#F43F5E"/>
<path d="M1.94824 12H2.78809V10.4473H3.82324C4.77702 10.4473 5.42155 9.81576 5.42155 8.87826V8.87174C5.42155 7.93099 4.77702 7.30273 3.82324 7.30273H1.94824V12ZM3.61816 7.98958C4.22038 7.98958 4.57194 8.31185 4.57194 8.875V8.88151C4.57194 9.44466 4.22038 9.77018 3.61816 9.77018H2.78809V7.98958H3.61816ZM6.34928 12H8.11035C9.5166 12 10.3206 11.1374 10.3206 9.63346V9.62695C10.3206 8.1556 9.50684 7.30273 8.11035 7.30273H6.34928V12ZM7.18913 11.2936V8.00911H7.99967C8.9209 8.00911 9.46452 8.60807 9.46452 9.63997V9.64648C9.46452 10.7012 8.93392 11.2936 7.99967 11.2936H7.18913ZM11.2842 12H12.124V10.0827H14.0934V9.39909H12.124V8.00911H14.279V7.30273H11.2842V12Z" fill="white"/>
</svg>
