<svg width="24" height="24" viewBox="0 0 24 24" fill="none" xmlns="http://www.w3.org/2000/svg">
<g clip-path="url(#clip0_658_16136)">
<path d="M0.716906 11.7344L2.35633e-08 12.0383C-4.68514e-05 12.22 0.0698438 12.4003 0.206203 12.5362L11.5053 23.7957C11.6371 23.9272 11.8636 23.9992 11.9966 23.9998C12.1317 24.0004 12.3628 23.9293 12.4969 23.7956L23.7941 12.529C23.9301 12.3933 23.9999 12.2134 24.0001 12.0321L23.3768 11.7344C23.0292 11.7344 19.8009 11.7344 15.8784 11.7344L11.6723 13.0922L8.11505 11.7344C4.42528 11.7344 1.35206 11.7344 0.716906 11.7344Z" fill="#FFB739"/>
<path d="M23.9998 12.0321C23.9998 12.2133 23.9301 12.3931 23.7938 12.5289L12.4967 23.7955C12.3638 23.9284 12.1348 23.9996 12 23.9996V12.9863L15.8784 11.7344H23.3767L23.9998 12.0321Z" fill="#FF9441"/>
<path d="M8.11523 11.7344L12.0003 23.9996L15.8786 11.7344H8.11523Z" fill="#FF9441"/>
<path d="M15.8783 11.7344L12 23.9996V11.7344H15.8783Z" fill="#FF7149"/>
<path d="M23.8822 11.6423L20.1216 6.00773C20.0695 5.92983 20.0025 5.86364 19.9253 5.81255L19.5844 5.97623L12.6506 6.01945L12 5.69531L11.4742 6.02677L4.55602 6.06989L4.07325 5.81325C3.99661 5.8642 3.92981 5.93016 3.87787 6.00811L0.117516 11.6497C0.0383437 11.7685 0 11.904 0 12.0388C1.36223 12.0384 22.2406 12.0329 24 12.0324C24.0001 11.8973 23.9617 11.7613 23.8822 11.6423Z" fill="#FFD17E"/>
<path d="M23.9998 12.0326C23.1281 12.0326 17.5605 12.0345 12 12.0359V5.69531L12.6508 6.01927L19.5845 5.97619L19.9253 5.81231C20.0025 5.86383 20.0695 5.92983 20.1215 6.00755L23.8823 11.6421C23.9619 11.7615 24.0003 11.8972 23.9998 12.0326Z" fill="#FFB739"/>
<path d="M4.46202 5.69531C4.32159 5.69531 4.18687 5.73755 4.07324 5.81316L8.23837 12.0366H8.23884L11.9996 5.69531H4.46202Z" fill="#FFB739"/>
<path d="M15.7626 12.0346L19.9254 5.81241C19.812 5.73727 19.6777 5.69531 19.5377 5.69531H12L15.7596 12.0346H15.7626V12.0346Z" fill="#FF9441"/>
<path d="M7.80141 16.9373C6.62602 16.9373 5.66973 15.9811 5.66973 14.8057C5.66973 14.4174 5.35491 14.1025 4.9666 14.1025C4.57829 14.1025 4.26348 14.4174 4.26348 14.8057C4.26348 15.9751 3.31299 16.9373 2.13184 16.9373C1.74352 16.9373 1.42871 17.2521 1.42871 17.6404C1.42871 18.0287 1.74352 18.3436 2.13184 18.3436C3.30723 18.3436 4.26348 19.2998 4.26348 20.4752C4.26348 20.8635 4.57829 21.1783 4.9666 21.1783C5.35491 21.1783 5.66973 20.8635 5.66973 20.4752C5.66973 19.3058 6.62012 18.3436 7.80141 18.3436C8.18973 18.3436 8.50454 18.0287 8.50454 17.6404C8.50454 17.2521 8.18973 16.9373 7.80141 16.9373Z" fill="#FFD17E"/>
<path d="M18.5777 2.83477C17.4023 2.83477 16.4461 1.87852 16.4461 0.703125C16.4461 0.314812 16.1313 0 15.743 0C15.3547 0 15.0398 0.314812 15.0398 0.703125C15.0398 1.87852 14.0836 2.83477 12.9082 2.83477C12.5199 2.83477 12.2051 3.14958 12.2051 3.53789C12.2051 3.9262 12.5199 4.24102 12.9082 4.24102C14.0836 4.24102 15.0398 5.19727 15.0398 6.37266C15.0398 6.76097 15.3547 7.07578 15.743 7.07578C16.1313 7.07578 16.4461 6.76097 16.4461 6.37266C16.4461 5.19727 17.4023 4.24102 18.5777 4.24102C18.966 4.24102 19.2809 3.9262 19.2809 3.53789C19.2809 3.14958 18.966 2.83477 18.5777 2.83477Z" fill="#FFB739"/>
</g>
<defs>
<clipPath id="clip0_658_16136">
<rect width="24" height="24" fill="white"/>
</clipPath>
</defs>
</svg>
