<svg width="24" height="24" viewBox="0 0 24 24" fill="none" xmlns="http://www.w3.org/2000/svg">
<path d="M9.15994 11.62C9.12994 11.62 9.10994 11.62 9.07994 11.62C9.02994 11.61 8.95994 11.61 8.89994 11.62C5.99994 11.53 3.80994 9.25 3.80994 6.44C3.80994 3.58 6.13994 1.25 8.99994 1.25C11.8599 1.25 14.1899 3.58 14.1899 6.44C14.1799 9.25 11.9799 11.53 9.18994 11.62C9.17994 11.62 9.16994 11.62 9.15994 11.62ZM8.99994 2.75C6.96994 2.75 5.30994 4.41 5.30994 6.44C5.30994 8.44 6.86994 10.05 8.85994 10.12C8.91994 10.11 9.04994 10.11 9.17994 10.12C11.1399 10.03 12.6799 8.42 12.6899 6.44C12.6899 4.41 11.0299 2.75 8.99994 2.75Z" fill="#292D32"/>
<path d="M16.54 11.75C16.51 11.75 16.48 11.75 16.45 11.74C16.04 11.78 15.62 11.49 15.58 11.08C15.54 10.67 15.79 10.3 16.2 10.25C16.32 10.24 16.45 10.24 16.56 10.24C18.02 10.16 19.16 8.96 19.16 7.49C19.16 5.97 17.93 4.74 16.41 4.74C16 4.75 15.66 4.41 15.66 4C15.66 3.59 16 3.25 16.41 3.25C18.75 3.25 20.66 5.16 20.66 7.5C20.66 9.8 18.86 11.66 16.57 11.75C16.56 11.75 16.55 11.75 16.54 11.75Z" fill="#292D32"/>
<path d="M9.16998 22.55C7.20998 22.55 5.23998 22.05 3.74998 21.05C2.35998 20.13 1.59998 18.87 1.59998 17.5C1.59998 16.13 2.35998 14.86 3.74998 13.93C6.74998 11.94 11.61 11.94 14.59 13.93C15.97 14.85 16.74 16.11 16.74 17.48C16.74 18.85 15.98 20.12 14.59 21.05C13.09 22.05 11.13 22.55 9.16998 22.55ZM4.57998 15.19C3.61998 15.83 3.09998 16.65 3.09998 17.51C3.09998 18.36 3.62998 19.18 4.57998 19.81C7.06998 21.48 11.27 21.48 13.76 19.81C14.72 19.17 15.24 18.35 15.24 17.49C15.24 16.64 14.71 15.82 13.76 15.19C11.27 13.53 7.06998 13.53 4.57998 15.19Z" fill="#292D32"/>
<path d="M18.3399 20.75C17.9899 20.75 17.6799 20.51 17.6099 20.15C17.5299 19.74 17.7899 19.35 18.1899 19.26C18.8199 19.13 19.3999 18.88 19.8499 18.53C20.4199 18.1 20.7299 17.56 20.7299 16.99C20.7299 16.42 20.4199 15.88 19.8599 15.46C19.4199 15.12 18.8699 14.88 18.2199 14.73C17.8199 14.64 17.5599 14.24 17.6499 13.83C17.7399 13.43 18.1399 13.17 18.5499 13.26C19.4099 13.45 20.1599 13.79 20.7699 14.26C21.6999 14.96 22.2299 15.95 22.2299 16.99C22.2299 18.03 21.6899 19.02 20.7599 19.73C20.1399 20.21 19.3599 20.56 18.4999 20.73C18.4399 20.75 18.3899 20.75 18.3399 20.75Z" fill="#292D32"/>
</svg>
