<svg width="24" height="24" viewBox="0 0 24 24" fill="none" xmlns="http://www.w3.org/2000/svg">
<path d="M12.07 21.98C10.66 21.98 9.24003 21.44 8.17003 20.37L3.64003 15.84C2.54003 14.74 1.96003 13.22 2.03003 11.67L2.27003 6.66002C2.38003 4.27002 4.27003 2.38002 6.67003 2.26002L11.67 2.02002C13.23 1.95002 14.74 2.53002 15.84 3.63002L20.37 8.16002C22.52 10.31 22.52 13.82 20.37 15.97L15.98 20.36C14.9 21.44 13.49 21.98 12.07 21.98ZM4.70003 14.77L9.23003 19.3C10.8 20.87 13.35 20.87 14.92 19.3L19.31 14.91C20.88 13.34 20.88 10.79 19.31 9.22002L14.77 4.70002C13.97 3.90002 12.88 3.48002 11.73 3.53002L6.73003 3.77002C5.11003 3.84002 3.84003 5.11002 3.76003 6.73002L3.52003 11.74C3.47003 12.86 3.90003 13.97 4.70003 14.77Z" fill="#292D32"/>
<path d="M9.5 12.75C7.71 12.75 6.25 11.29 6.25 9.5C6.25 7.71 7.71 6.25 9.5 6.25C11.29 6.25 12.75 7.71 12.75 9.5C12.75 11.29 11.29 12.75 9.5 12.75ZM9.5 7.75C8.54 7.75 7.75 8.54 7.75 9.5C7.75 10.46 8.54 11.25 9.5 11.25C10.46 11.25 11.25 10.46 11.25 9.5C11.25 8.54 10.46 7.75 9.5 7.75Z" fill="#292D32"/>
<path d="M13 17.75C12.81 17.75 12.62 17.68 12.47 17.53C12.18 17.24 12.18 16.76 12.47 16.47L16.47 12.47C16.76 12.18 17.24 12.18 17.53 12.47C17.82 12.76 17.82 13.24 17.53 13.53L13.53 17.53C13.38 17.68 13.19 17.75 13 17.75Z" fill="#292D32"/>
</svg>
